<?xml version="1.0" encoding="utf-8"?>
<!-- Generator: Adobe Illustrator 24.3.0, SVG Export Plug-In . SVG Version: 6.00 Build 0)  -->
<svg version="1.1" id="Layer_1" xmlns="http://www.w3.org/2000/svg" xmlns:xlink="http://www.w3.org/1999/xlink" x="0px" y="0px"
	 viewBox="0 0 500 500" style="enable-background:new 0 0 500 500;" xml:space="preserve">
<g>
	<path style="fill:#241F20;" d="M33.4,70.46c-2.95-29.89,8.23-53.64,35.36-60.64c51.09-3.7,36.14,66.84,61.36,93.17
		c23.63,26.3,49.68,27.63,101.1,28.64c36.77-0.86,83.22,2.34,102.85-85.82c9.85-44.22,61.44-41.07,68.33,7.25
		c24.13,155.18,48.27,298.88,72.4,446.95H500V0H0v500h42.27C48.82,357.59,45.41,219.64,33.4,70.46z"/>
	<g>
		<path style="fill:#FFFFFF;" d="M402.41,53.05c-6.88-48.33-58.48-51.48-68.33-7.25c-19.64,88.16-66.08,84.97-102.85,85.82
			c-51.43-1-77.47-2.34-101.1-28.64C104.9,76.66,119.86,6.12,68.76,9.82C41.64,16.83,30.46,40.58,33.4,70.46
			C45.41,219.64,48.82,357.59,42.27,500h432.54C450.67,351.93,426.54,208.23,402.41,53.05z M130.67,351.57
			c11.52,0.04,23.04,0.08,34.56,0.11c5.82,0.02,5.82,9.06,0,9.04c-11.52-0.04-23.04-0.08-34.56-0.11
			C124.85,360.58,124.86,351.55,130.67,351.57z M171.93,394.16c-11.18,4.7-22.35,9.4-33.53,14.11c-2.26,0.95-4.97-1.04-5.56-3.16
			c-0.71-2.57,0.91-4.61,3.15-5.56c11.18-4.7,22.35-9.4,33.53-14.11c2.27-0.95,4.98,1.04,5.56,3.16
			C175.8,391.18,174.18,393.22,171.93,394.16z M167.02,290.03c-36.36,0.75-48.3-46.8-18.01-63.29
			C183.55,213.98,213.82,289.7,167.02,290.03z M209.06,370.94c-14.62-22.71,34.58-34.6,38.82-13.46
			C248.83,377.88,220.17,388.75,209.06,370.94z M307.81,220.11c31.36,17.07,18.99,66.28-18.64,65.51
			C240.72,285.28,272.06,206.9,307.81,220.11z M320.53,371.81c-11.52,0.41-23.05,0.82-34.57,1.23c-2.45,0.09-4.52-2.14-4.52-4.52
			c0-2.5,2.08-4.43,4.52-4.52c11.52-0.41,23.05-0.82,34.57-1.23c2.45-0.09,4.52,2.14,4.52,4.52
			C325.05,369.8,322.97,371.73,320.53,371.81z M324.81,332.81c-13.71,4.28-27.43,8.56-41.14,12.83c-5.58,1.74-7.94-6.99-2.4-8.71
			c13.71-4.28,27.42-8.56,41.14-12.83C327.98,322.36,330.34,331.09,324.81,332.81z"/>
	</g>
	<g>
		<path style="fill:#241F20;" d="M307.81,220.11c-35.75-13.21-67.09,65.17-18.64,65.51C326.8,286.4,339.17,237.18,307.81,220.11z"/>
	</g>
	<g>
		<path style="fill:#241F20;" d="M149.01,226.74c-30.3,16.49-18.35,64.04,18.01,63.29C213.82,289.7,183.55,213.98,149.01,226.74z"/>
	</g>
	<path style="fill:#241F20;" d="M209.06,370.94c11.1,17.81,39.77,6.94,38.82-13.46C243.65,336.35,194.44,348.24,209.06,370.94z"/>
	<path style="fill:#282B2E;" d="M165.24,351.68c-11.52-0.04-23.04-0.08-34.56-0.11c-5.82-0.02-5.83,9.02,0,9.04
		c11.52,0.04,23.04,0.08,34.56,0.11C171.05,360.73,171.06,351.7,165.24,351.68z"/>
	<path style="fill:#282B2E;" d="M169.53,385.45c-11.17,4.7-22.35,9.41-33.53,14.11c-2.25,0.95-3.86,2.99-3.15,5.56
		c0.58,2.12,3.3,4.11,5.56,3.16c11.18-4.7,22.35-9.4,33.53-14.11c2.25-0.95,3.86-2.99,3.16-5.56
		C174.51,386.49,171.8,384.5,169.53,385.45z"/>
	<path style="fill:#282B2E;" d="M322.4,324.1c-13.71,4.28-27.42,8.56-41.14,12.83c-5.53,1.73-3.17,10.45,2.4,8.71
		c13.71-4.28,27.42-8.56,41.14-12.83C330.34,331.09,327.98,322.36,322.4,324.1z"/>
	<path style="fill:#282B2E;" d="M320.53,362.78c-11.52,0.41-23.05,0.82-34.57,1.23c-2.44,0.09-4.52,2.02-4.52,4.52
		c0,2.38,2.07,4.61,4.52,4.52c11.52-0.41,23.05-0.82,34.57-1.23c2.44-0.09,4.52-2.02,4.52-4.52
		C325.05,364.91,322.98,362.69,320.53,362.78z"/>
</g>
</svg>
