<svg xmlns="http://www.w3.org/2000/svg" width="133.051" height="199.434" viewBox="0 0 133.051 199.434"><g transform="translate(886.751 -935.022)"><path d="M-886.751,1121.964c5.971-58.7,6.034-111.229,1.3-170.042-.82-8.31,2.289-14.912,9.831-16.861,14.2-1.028,10.047,18.583,17.06,25.9,6.569,7.312,13.811,7.683,28.11,7.961,10.224-.238,23.137.65,28.6-23.861,2.739-12.3,17.084-11.42,19,2.016,9.719,62.494,19.438,118.288,29.156,180.782A242.626,242.626,0,0,1-886.751,1121.964Z" transform="translate(0 0)" fill="#fff"/><path d="M-609.978,1192.962c-13.47-.1-4.759-21.888,5.182-18.214C-596.077,1179.494-599.515,1193.177-609.978,1192.962Z" transform="translate(-204.361 -181.219)" fill="#241f20"/><path d="M-758.92,1199.98c13.013-.093,4.6-21.146-5.007-17.6C-772.35,1186.968-769.028,1200.188-758.92,1199.98Z" transform="translate(-89.382 -187.011)" fill="#241f20"/><g transform="translate(-837.364 1028.658)"><path d="M-682.543,1327.571c-4.065-6.313,9.615-9.618,10.793-3.741C-671.487,1329.5-679.457,1332.523-682.543,1327.571Z" transform="translate(683.295 -1320.764)" fill="#241f20"/></g><path d="M-764.16,1326.64l-9.609-.031a1.257,1.257,0,0,0,0,2.513l9.609.031A1.257,1.257,0,0,0-764.16,1326.64Z" transform="translate(-84.637 -296.533)" fill="#282b2e"/><path d="M-757.438,1365.206l-9.322,3.922a1.3,1.3,0,0,0-.877,1.546,1.264,1.264,0,0,0,1.545.878l9.322-3.922a1.3,1.3,0,0,0,.878-1.546A1.265,1.265,0,0,0-757.438,1365.206Z" transform="translate(-90.165 -325.709)" fill="#282b2e"/><path d="M-588.791,1294.952l-11.437,3.568c-1.539.48-.882,2.907.668,2.423l11.437-3.568C-586.584,1296.9-587.241,1294.469-588.791,1294.952Z" transform="translate(-216.309 -272.512)" fill="#282b2e"/><path d="M-586.435,1339.449l-9.612.341a1.281,1.281,0,0,0-1.256,1.256,1.27,1.27,0,0,0,1.256,1.256l9.612-.341a1.281,1.281,0,0,0,1.256-1.256A1.269,1.269,0,0,0-586.435,1339.449Z" transform="translate(-219.187 -306.255)" fill="#282b2e"/></g></svg>