<svg xmlns="http://www.w3.org/2000/svg" viewBox="0 0 3883.02 315.2"><defs><style>.a{fill:#5247cc;}.a,.b{opacity:0.5;}.b{fill:#8efdd2;}</style></defs><path class="a" d="M3782.73,290.21l2.74,25h58.37C3825,304.19,3804.31,295.33,3782.73,290.21Z"/><path class="a" d="M3833.53,116.43c-.25-2-.51-4-.76-5.94-1.26-9.67-2.56-19.67-2.74-26.5-.05-1.67-.13-4.25-.23-7.39-4.73-.92-9.76-1.7-14.94-2.33-1.53-.19-3.08-.37-4.63-.53-.07,7.21-.15,13.31-.28,16.5a1.57,1.57,0,0,1-2,1.46,1.91,1.91,0,0,1-1.37-1.53c-1-6.08-1.92-11.74-2.78-17-6.67-.56-13.4-.9-19.89-1L3786,87.89a1.63,1.63,0,0,1-.35,1.26,1.68,1.68,0,0,1-1.14.64,1.89,1.89,0,0,1-2-1.41c-1.49-5.85-2.86-11.26-4.13-16.27a177.83,177.83,0,0,0-21.43,1.18l4.25,22.47a1.55,1.55,0,0,1-.78,1.65,1.9,1.9,0,0,1-1.58.11,1.93,1.93,0,0,1-1.11-1.13l-7.92-22A140.41,140.41,0,0,0,3731,79.27c3,9.54,6.11,19.49,8.89,28.39,9.19-.46,18.43-1.22,27.74-1.22C3787.59,106.44,3810.46,109.67,3833.53,116.43Z"/><path class="a" d="M3717.72,103.34c-3.7-3.74-10-7.46-16.25-9.37l-3.17-1a5.26,5.26,0,0,0-5.92,7.94c3.28,4.85,7.71,12.27,12,19.76a45.36,45.36,0,0,1,5.84-9.33A84.36,84.36,0,0,1,3717.72,103.34Z"/><path class="a" d="M3787.65,124.51a49,49,0,0,0-8.88-14.73c-3.81-.22-7.54-.34-11.16-.34-8.89,0-17.82.71-26.81,1.18,1.87,6,3.56,11.38,4.92,15.71a420.84,420.84,0,0,1,45.73,13.41A77.42,77.42,0,0,0,3787.65,124.51Z"/><path class="a" d="M3812.13,248.75q5,1.86,10.07,3.94a280.61,280.61,0,0,1,32.69,16.12l-9.29-52.92c-15.2-7.75-31.83-13.86-48.57-19.3C3805.69,214,3809.53,229.25,3812.13,248.75Z"/><path class="a" d="M3793,195.3c-8.62-2.75-17.24-5.35-25.69-7.92l-1.32.18a30.23,30.23,0,0,1,7.29,16.62L3777.1,239a197.72,197.72,0,0,1,31.84,8.61C3806.22,228,3802.22,213.07,3793,195.3Z"/><path class="a" d="M3743.83,131l-5.23-3.65a53,53,0,0,1-13.29-13.43c-2.66-3.89-4.6-6.72-5.66-8.24a81,81,0,0,0-7.06,7.61,40.46,40.46,0,0,0-6.31,10.71c2,3.49,3.92,6.91,5.66,10a90.42,90.42,0,0,0,13.48,18.31c19.18,20.12,24.09,24.16,32.16,28.53.53.29,1.05.59,1.56.91l5.71,1.76A129.57,129.57,0,0,0,3743.83,131Z"/><path class="a" d="M3765.25,186.75l.12.13s0-.07,0-.1Z"/><path class="a" d="M3845,212.2l-1.13-6.43c-2.28-13-4.09-26.63-5.33-39.91-27.51-17.74-59.54-28.42-91.73-36.2l.18.55a132.77,132.77,0,0,1,21.1,54.25C3793.51,192.23,3820.8,200.2,3845,212.2Z"/><path class="a" d="M3770.29,40.39a171.73,171.73,0,0,0-19,3.29c1.35,7.07,3,15.83,5,26.66a178,178,0,0,1,21.23-1.22Z"/><path class="a" d="M3739.77,46.66c-5.57,1.61-11.3,3.49-17.24,5.63,2.1,6.71,4.75,15.16,7.56,24.12a142,142,0,0,1,18.63-4.88Z"/><path class="a" d="M3762.67,10a8.78,8.78,0,0,0-10.06-6.78l-.25,0a8.77,8.77,0,0,0-6.81,10.34c.12.57.67,3.39,5.18,27.13a173.87,173.87,0,0,1,18.82-3.27C3763.5,13.51,3762.79,10.55,3762.67,10Z"/><path class="a" d="M3734.63,32.4a8.54,8.54,0,0,0-4.54-5A8.75,8.75,0,0,0,3718,37.68l3.67,11.74c5.88-2.12,11.57-4,17.12-5.59Z"/><path class="a" d="M3829.69,73.53c-.29-8.35-.7-19.47-1.07-29-6.29-1.48-12.35-2.64-18.26-3.47,0,8.67,0,19.88-.11,29.64,1.67.17,3.33.36,5,.56C3820.23,71.91,3825.08,72.66,3829.69,73.53Z"/><path class="a" d="M3827.83,25.69a8.78,8.78,0,0,0-8.74-8.46,8.5,8.5,0,0,0-6.17,2.62,9.27,9.27,0,0,0-2.55,6.79V38.06c5.88.82,11.9,1.95,18.13,3.39C3828.2,33.79,3827.94,27.64,3827.83,25.69Z"/><path class="a" d="M3790.45,123.44a84.68,84.68,0,0,1,4.22,17.49,239.71,239.71,0,0,1,43.47,21.17c-.14-1.67-.28-3.33-.4-5-.7-9.35-1.66-18.17-2.51-25.95-.18-1.71-.36-3.37-.53-5-.23-2.09-.49-4.29-.76-6.52a246,246,0,0,0-51.08-9.63A50.91,50.91,0,0,1,3790.45,123.44Z"/><path class="a" d="M3798.37,39.8c-3.66-.25-7.28-.39-10.88-.39-2.61,0-5.21.08-7.81.21l3.85,29.52c6.47.09,13.15.41,19.79,1C3801.34,58,3799.7,48,3798.37,39.8Z"/><path class="a" d="M3797.87,36.76c-3.26-19.9-4.54-27.74-4.63-28.3a8.75,8.75,0,0,0-15.71-3.73,8.69,8.69,0,0,0-1.53,6.64v.11l3.28,25.16q4.1-.22,8.2-.23C3790.93,36.41,3794.38,36.53,3797.87,36.76Z"/><path class="a" d="M3863,315.2l-7.45-42.51a274.3,274.3,0,0,0-34.52-17.23c-14.84-6.16-30.05-10.94-43.61-13.37l4.94,45c24,5.54,46.78,15.64,67.31,28.15Z"/><polygon class="a" points="3778.36 109.3 3778.36 109.3 3778.36 109.3 3778.36 109.3"/><polygon class="a" points="3792.73 194.75 3792.73 194.75 3792.73 194.75 3792.73 194.75"/><path class="b" d="M2201.9,132.15a5.27,5.27,0,0,0-6-.86l-3,1.51c-6.9,3.52-13.55,9.6-15.81,14.46-.76,1.64-2.22,4.84-4.23,9.27a52.93,52.93,0,0,1-10.77,15.52l-6.19,6.18a1.34,1.34,0,0,1-1.57-1.48c3-22.77,12.57-96.31,12.6-96.55a8.74,8.74,0,0,0-13.72-8,8.5,8.5,0,0,0-3.61,5.72s-9.53,54.87-11.64,67a1.86,1.86,0,0,1-.89,1.3,1.89,1.89,0,0,1-1.57.18,1.56,1.56,0,0,1-1.06-1.49c1-76.67,1.13-82.75,1.15-83.62a8.74,8.74,0,0,0-8.49-9h-.25a8.77,8.77,0,0,0-8.74,8.42c0,.84-.42,7-5.94,80.61a1.89,1.89,0,0,1-1.76,1.75,1.72,1.72,0,0,1-1.24-.43,1.68,1.68,0,0,1-.56-1.19l-3.39-77.09a8.75,8.75,0,0,0-9.05-8.73,8.8,8.8,0,0,0-8.44,8.84c0,.93.25,21.5,1,82.8a1.87,1.87,0,0,1-1.08,1.73,1.57,1.57,0,0,1-1.37,0,1.55,1.55,0,0,1-.83-1.08c-2.49-11.54-11.39-62.47-11.4-62.56a9.33,9.33,0,0,0-3.69-6.26,8.5,8.5,0,0,0-6.53-1.51,8.77,8.77,0,0,0-7.15,9.84c.67,5.74,6.44,47.88,7.91,57.8,1,6.76,1.45,16.84,1.88,26.58.24,5.34.49,10.87.82,15.81.11,1.61.22,3.28.33,5,.51,7.81,1.09,16.67,2,26,1.58,15.93,2.41,32.87,2.41,49V315.2h73.16l-4-61.43A30.33,30.33,0,0,1,2152.7,228c7.19-5.7,11.33-10.53,26.74-33.66A90.6,90.6,0,0,0,2189.56,174c4.05-11.63,9.69-27.3,13.55-35.93A5.26,5.26,0,0,0,2201.9,132.15Zm-61.85,81.51a1.5,1.5,0,0,1-2.12,0c-1.63-1.7-3.28-3.29-5-4.8a47,47,0,0,0-3.38,5,1.5,1.5,0,0,1-2.61-1.48,51.33,51.33,0,0,1,3.72-5.53,80.31,80.31,0,0,0-8.59-6.3c-.8,1.82-1.61,3.62-2.41,5.43a1.5,1.5,0,0,1-2.75-1.21l2.58-5.8q-3.14-1.82-6.42-3.32a75.67,75.67,0,0,0-7.25-2.84c-.61,2.4-1.25,4.81-2,7.21a1.5,1.5,0,1,1-2.88-.87c.73-2.38,1.36-4.81,2-7.24a85.39,85.39,0,0,0-13-2.69c-.22,1.8-.46,3.61-.74,5.41a1.5,1.5,0,0,1-3-.46c.27-1.76.5-3.53.72-5.3-1.25-.12-2.52-.23-3.79-.3a1.5,1.5,0,0,1,.18-3c1.33.08,2.65.19,4,.32q.33-3.07.65-6.15h0a1.5,1.5,0,1,1,3,.31l-.66,6.19a88.33,88.33,0,0,1,13.38,2.76c.64-2.58,1.29-5.16,2-7.74h0a1.5,1.5,0,0,1,2.89.81c-.72,2.58-1.37,5.2-2,7.83a78,78,0,0,1,7.74,3c2.17,1,4.29,2.09,6.37,3.28.9-2.12,1.76-4.25,2.51-6.41h0a1.5,1.5,0,0,1,2.84,1c-.83,2.39-1.77,4.71-2.75,7a83,83,0,0,1,9.21,6.71c.89-1.14,1.78-2.26,2.63-3.4h0a1.5,1.5,0,0,1,2.4,1.8c-.91,1.21-1.84,2.38-2.76,3.55q2.7,2.41,5.3,5.11h0A1.5,1.5,0,0,1,2140.05,213.66Z"/><path class="a" d="M2602.18,38.09a8.48,8.48,0,0,0-6.7.12,9.29,9.29,0,0,0-4.91,5.35c0,.09-19.37,48-24.21,58.81a1.59,1.59,0,0,1-1.05.87A1.55,1.55,0,0,1,2564,103a1.88,1.88,0,0,1-.7-1.92c13.49-59.8,18-79.87,18.22-80.78a8.79,8.79,0,0,0-6.4-10.4,8.75,8.75,0,0,0-10.68,6.65l0,.1L2545,91.2a1.71,1.71,0,0,1-.79,1,1.76,1.76,0,0,1-1.31.16,1.89,1.89,0,0,1-1.35-2.08c10-73.09,10.88-79.25,11-80.08A8.79,8.79,0,0,0,2545.79.19l-.24,0a8.75,8.75,0,0,0-10.19,7c-.16.86-1.31,6.83-16.33,82a1.54,1.54,0,0,1-1.34,1.23,1.87,1.87,0,0,1-1.5-.49,1.89,1.89,0,0,1-.61-1.46c.48-12.32,2.61-67.94,2.61-68a8.51,8.51,0,0,0-2.33-6.35,8.74,8.74,0,0,0-15.1,5c0,.23-6,74.16-7.84,97a1.32,1.32,0,0,1-.63,1,1.3,1.3,0,0,1-1.21.09l-4.76-7.33a53,53,0,0,1-7.3-17.43c-1-4.75-1.8-8.19-2.2-9.95-1.2-5.22-6.43-12.56-12.44-17.44l-2.58-2.09a5.26,5.26,0,0,0-8.46,5.14c2,9.25,4.22,25.75,5.75,38a90.76,90.76,0,0,0,5.64,22c10.25,25.84,13.29,31.42,19.13,38.49a30.33,30.33,0,0,1,5.81,27.55L2455.59,315.2h79l19.86-93c3.36-15.75,7.71-32.13,12.58-47.38,2.85-8.93,5.27-17.47,7.4-25,.47-1.65.92-3.26,1.37-4.81,1.35-4.77,2.75-10.12,4.09-15.29,2.46-9.44,5-19.2,7.39-25.6,3.52-9.4,18-49.4,19.81-54.88A8.78,8.78,0,0,0,2602.18,38.09Zm-47.11,116.08c-2.71,1.66-5.27,3.28-7.72,4.88,1.64,2.51,3.27,5,4.93,7.5a1.5,1.5,0,0,1-2.5,1.66q-2.49-3.74-4.93-7.5a138,138,0,0,0-12.49,9.41c2,2.61,4,5.18,6.23,7.69a1.5,1.5,0,1,1-2.27,2c-2.18-2.52-4.22-5.08-6.21-7.68a103.47,103.47,0,0,0-10.17,10.57c2.38,2.48,4.84,4.85,7.48,7.18a1.5,1.5,0,1,1-2,2.25c-2.61-2.3-5.05-4.64-7.4-7.08-1.64,2.08-3.27,4.28-4.91,6.64a1.5,1.5,0,0,1-2.47-1.7c1.76-2.55,3.52-4.91,5.3-7.14-1.39-1.51-2.76-3-4.12-4.65h0a1.5,1.5,0,1,1,2.28-1.95c1.25,1.46,2.5,2.87,3.76,4.25a105.6,105.6,0,0,1,10.41-10.77c-1.62-2.16-3.22-4.35-4.82-6.56h0a1.5,1.5,0,0,1,2.42-1.76c1.56,2.15,3.11,4.25,4.67,6.34a139.61,139.61,0,0,1,12.65-9.51l-3.36-5.13h0a1.5,1.5,0,1,1,2.5-1.65q1.68,2.55,3.35,5.12c2.49-1.63,5.07-3.27,7.8-4.94h0a1.5,1.5,0,0,1,1.57,2.56Z"/><path class="b" d="M3592.85,72.25a8.49,8.49,0,0,0-6.7.31A9.29,9.29,0,0,0,3581.4,78c0,.09-18,48.56-22.57,59.46a1.54,1.54,0,0,1-1,.9,1.58,1.58,0,0,1-1.35-.23,1.88,1.88,0,0,1-.75-1.9c11.82-60.15,15.79-80.34,16-81.25a8.75,8.75,0,0,0-13.43-9,8.7,8.7,0,0,0-3.76,5.69l-17.31,75.19a1.7,1.7,0,0,1-2.07,1.27,1.88,1.88,0,0,1-1.41-2c7.92-73.34,8.66-79.52,8.78-80.36a8.77,8.77,0,0,0-7.06-9.86l-.25,0a8.75,8.75,0,0,0-10,7.32c-.14.86-1.12,6.86-14,82.43a1.56,1.56,0,0,1-1.31,1.28,1.91,1.91,0,0,1-2.16-1.9c.13-12.33.71-68,.71-68a8.52,8.52,0,0,0-2.5-6.28,8.75,8.75,0,0,0-15,5.42c0,.24-3.92,74.3-5.13,97.23a1.31,1.31,0,0,1-.6,1,1.33,1.33,0,0,1-1.21.13l-5-7.2a52.83,52.83,0,0,1-7.78-17.22c-1.17-4.71-2-8.13-2.48-9.88-1.34-5.19-6.78-12.38-12.92-17.09l-2.63-2a5.26,5.26,0,0,0-8.32,5.38c2.22,9.18,4.93,25.62,6.81,37.79a90.34,90.34,0,0,0,6.25,21.86c11,25.55,14.15,31,20.2,37.95a30.37,30.37,0,0,1,6.57,27.38l-21.09,83.69h76l10.63-57.61c2.92-15.84,6.81-32.34,11.26-47.72,2.6-9,4.77-17.6,6.7-25.19.42-1.67.83-3.28,1.23-4.85,1.22-4.8,2.46-10.19,3.67-15.4,2.19-9.5,4.46-19.33,6.67-25.8,3.25-9.49,16.57-49.88,18.27-55.4A8.79,8.79,0,0,0,3592.85,72.25ZM3555.5,173.47a1.49,1.49,0,0,1-2.09-.36c-1.79-2.52-3.76-5-5.76-7.38-2.8,2.8-5.45,5.63-8,8.51,1,1.06,2,2.14,2.95,3.25a1.5,1.5,0,1,1-2.27,2c-.86-1-1.75-2-2.66-2.93-3,3.52-5.88,7.13-8.66,10.89,1.63,1.37,3.27,2.74,4.92,4.06a1.5,1.5,0,1,1-1.88,2.34c-1.62-1.3-3.22-2.63-4.81-4-1.64,2.29-3.26,4.64-4.86,7.07a1.5,1.5,0,1,1-2.5-1.65q2.49-3.78,5-7.36c-1.75-1.47-3.5-2.93-5.27-4.35h0a1.5,1.5,0,1,1,1.88-2.34c1.75,1.4,3.46,2.83,5.17,4.26,2.84-3.85,5.78-7.54,8.87-11.14q-1.53-1.56-3.11-3.1h0a1.5,1.5,0,0,1,2.1-2.15c1,1,2,2,3,3,2.6-2.93,5.31-5.81,8.17-8.67q-1.29-1.54-2.55-3.12h0a1.5,1.5,0,1,1,2.33-1.88l2.36,2.88c.8-.78,1.61-1.55,2.43-2.33h0a1.5,1.5,0,1,1,2.06,2.18c-.87.83-1.73,1.65-2.57,2.48,2.07,2.51,4.14,5.07,6.06,7.76A1.51,1.51,0,0,1,3555.5,173.47Z"/><path class="a" d="M3244.82,198.33a5.26,5.26,0,0,0-6-.92l-3,1.48c-6.93,3.45-13.64,9.47-15.95,14.31-.77,1.63-2.27,4.82-4.31,9.23a52.89,52.89,0,0,1-10.92,15.42l-6.25,6.12a1.37,1.37,0,0,1-1.16-.35,1.35,1.35,0,0,1-.39-1.14c3.18-22.74,13.47-96.19,13.5-96.43a8.74,8.74,0,0,0-13.65-8.17,8.5,8.5,0,0,0-3.66,5.69s-10,54.77-12.26,66.9a1.9,1.9,0,0,1-2.48,1.45,1.54,1.54,0,0,1-1-1.5c1.72-76.66,1.89-82.74,1.93-83.6a8.76,8.76,0,0,0-8.41-9.09h-.25a8.79,8.79,0,0,0-8.82,8.34c0,.84-.48,7.05-6.69,80.56a1.89,1.89,0,0,1-1.77,1.73,1.75,1.75,0,0,1-1.24-.44,1.67,1.67,0,0,1-.55-1.2l-2.67-77v-.1a8.75,8.75,0,0,0-9-8.82,8.8,8.8,0,0,0-8.52,8.76c0,.93,0,21.5.19,82.8a1.91,1.91,0,0,1-1.1,1.73,1.57,1.57,0,0,1-2.19-1.11c-2.39-11.57-10.81-62.58-10.82-62.68a9.29,9.29,0,0,0-3.62-6.28,8.55,8.55,0,0,0-6.52-1.58,8.77,8.77,0,0,0-7.24,9.78c.61,5.75,6,47.93,7.37,57.87.94,6.77,1.29,16.85,1.63,26.6.19,5.34.38,10.87.67,15.81.09,1.62.19,3.28.28,5,.44,7.81.94,16.67,1.78,26,.92,10.32,1.52,21.06,1.79,31.71h69.56a30.33,30.33,0,0,1,11.6-21.46c7.25-5.62,11.43-10.41,27.06-33.4a90.61,90.61,0,0,0,10.31-20.27c4.16-11.59,9.95-27.21,13.89-35.8A5.25,5.25,0,0,0,3244.82,198.33Zm-59.57,31.53c-4.78,2.75-9.57,5.35-14.41,7.78,2,5.47,4,11,5.83,16.52a1.5,1.5,0,1,1-2.85.94c-1.78-5.4-3.73-10.75-5.69-16.11a195.48,195.48,0,0,1-26.74,10.81c1.36,4.86,2.71,9.72,4.09,14.56a1.5,1.5,0,0,1-2.89.82q-2.06-7.23-4.07-14.49a156.19,156.19,0,0,1-22.15,4.89h0a1.5,1.5,0,1,1-.43-3,152.4,152.4,0,0,0,21.76-4.81c-1.4-5-2.83-9.93-4.35-14.84h0a1.5,1.5,0,0,1,2.87-.88c1.52,4.92,3,9.88,4.35,14.83a192.08,192.08,0,0,0,26.53-10.75c-1.81-4.95-3.61-9.91-5.29-14.94h0a1.5,1.5,0,0,1,2.85-.95c1.62,4.87,3.37,9.7,5.14,14.54q7-3.56,13.95-7.55a1.5,1.5,0,0,1,1.5,2.6Z"/><path class="b" d="M2909.65,73.42a8.74,8.74,0,0,0-12.49-9.85,8.48,8.48,0,0,0-4.36,5.17s-2.24,7-5.28,16.48c6.17.25,12.34.71,18.5,1.42C2908.21,78.67,2909.63,73.48,2909.65,73.42Z"/><path class="b" d="M2846.94,89.21c-6.39.51-12.79,1.16-19.18,1.91-1,7.81-2.13,16.82-3.45,27.19,6.7-1,13.4-1.79,20.11-2.3Z"/><path class="b" d="M2881.21,50.35A8.76,8.76,0,0,0,2874,40.26l-.24,0a8.78,8.78,0,0,0-9.82,7.14c-.06.33-.29,1.52-1.57,7.51,5.9.52,11.8,1.27,17.74,2.34C2881,51.76,2881.15,50.68,2881.21,50.35Z"/><path class="b" d="M2875.9,85c1.81-11.9,3-19.69,3.78-24.8-6-1.07-11.94-1.83-17.91-2.34-1.2,5.63-3.06,14.32-5.95,27.75,6.63-.38,13.26-.61,19.9-.61Z"/><path class="b" d="M2850,57.08c-5.89-.25-11.82-.35-17.84-.37-.83,6.52-2.11,16.63-4,31.35q9.53-1.11,19.08-1.89Z"/><path class="b" d="M2819,252.29c-10.61,2-21,4.55-31,7.41l-5.2,37.51c9.14-2.46,18.7-4.67,28.45-6.43C2811.82,277.13,2814.88,265.15,2819,252.29Z"/><path class="b" d="M2814.27,290.25a239.78,239.78,0,0,1,39.83-3.6l2.94,0,2.84-38.64a229.47,229.47,0,0,0-37.59,3.65C2818.08,264.83,2814.93,276.73,2814.27,290.25Z"/><path class="b" d="M2850.71,49.21a8.76,8.76,0,0,0-7.78-9.89,8.78,8.78,0,0,0-9.56,7.6c0,.28-.3,2.35-.86,6.79,6,0,11.87.12,17.74.38Z"/><path class="b" d="M2817.89,92.35c-6.21.82-12.41,1.71-18.61,2.63,0,11.35,0,22.73,0,27.93,6.59-1.41,13.16-2.69,19.72-3.77C2818.66,111.57,2818.25,101.62,2817.89,92.35Z"/><path class="b" d="M2816.9,65.71a9.3,9.3,0,0,0-2.79-6.7,8.53,8.53,0,0,0-6.26-2.4,8.78,8.78,0,0,0-8.43,8.77c-.06,2.81-.11,14.33-.14,26.57q9.24-1.38,18.5-2.6C2817.28,76.53,2816.9,65.75,2816.9,65.71Z"/><path class="b" d="M2826.63,152.19c-2.85,10-4.86,21.4-6.48,31.83,20.82-10,43.32-16.42,65.11-21.64,1.25-4.54,2.79-10.17,4.49-16.37-3.2-.18-6.4-.28-9.62-.28C2862.38,145.73,2844.3,148.37,2826.63,152.19Z"/><path class="b" d="M2908.52,162.22a53,53,0,0,1,7.17,13.31c1.22-2,2.37-4,3.43-6.09,5.62-11,13.36-25.71,18.36-33.72a5.26,5.26,0,0,0-6.2-7.72l-3.13,1.08c-7.32,2.54-14.74,7.65-17.65,12.16-1,1.51-2.87,4.49-5.46,8.6a54,54,0,0,1-3.35,4.68A63.08,63.08,0,0,1,2908.52,162.22Z"/><path class="b" d="M2871.24,115.54c1.66-10.92,3.05-20,4.2-27.56-6.76,0-13.52.24-20.27.64-1.63,7.55-3.55,16.48-5.84,27.06q6.28-.36,12.59-.37C2865,115.31,2868.13,115.4,2871.24,115.54Z"/><path class="b" d="M2865.93,204.3c5.52-.43,11.07-.68,16.66-.68,3.15,0,6.31.08,9.48.22,3.68-3.84,8.23-8.84,14.24-15.61a90.14,90.14,0,0,0,7.33-9.49,50.74,50.74,0,0,0-7.53-14.73,59.2,59.2,0,0,0-6.37-7.2,53.34,53.34,0,0,1-7.5,6.92l-7,5.27a1.36,1.36,0,0,1-1-.38,82.6,82.6,0,0,0-11.14,16.16A95.27,95.27,0,0,0,2865.93,204.3Z"/><path class="b" d="M2870.46,183.41a86.09,86.09,0,0,1,12-17.26c-30.81,7.54-62.53,17.71-88.49,37-.31,6-.74,12-1.28,18.1,22.89-8.42,46.17-14.48,70.08-16.7A100.26,100.26,0,0,1,2870.46,183.41Z"/><path class="b" d="M2890.56,143.05c1.88-6.85,3.91-14.26,5.92-21.61a178.77,178.77,0,0,0-19.73-2.56c-2.06,6.43-3.76,11.77-4.68,14.64a1.91,1.91,0,0,1-2.65,1.12,1.56,1.56,0,0,1-.84-1.62c.78-5.15,1.52-10,2.21-14.5-3-.13-5.92-.21-8.87-.21q-6.63,0-13.24.41c-.54,2.48-1.09,5-1.66,7.68a1.89,1.89,0,0,1-2,1.49,1.71,1.71,0,0,1-1.57-1.85l.66-7c-6.73.53-13.46,1.35-20.21,2.37q-.48,3.72-1,7.66a1.9,1.9,0,0,1-1.32,1.57,1.57,1.57,0,0,1-2-1.38c-.12-1.66-.27-4.11-.42-7.1-6.61,1.1-13.23,2.39-19.88,3.83-.12,6.68-1,15.63-1.77,24.33-.19,2-.38,4.11-.57,6.17,26.5-7.29,55.11-13.74,83.17-13.75C2883.61,142.73,2887.1,142.83,2890.56,143.05Z"/><path class="b" d="M2823.31,152.93c-9,2-17.94,4.33-26.63,6.74-.19,2.19-.37,4.35-.51,6.41-.12,1.61-.24,3.28-.36,5-.57,7.81-1.21,16.66-1.57,26,0,.74-.07,1.49-.11,2.23a170.2,170.2,0,0,1,22.73-13.68C2818.47,175.16,2820.44,163.41,2823.31,152.93Z"/><path class="b" d="M2839.79,290.16a115.74,115.74,0,0,0-4.66,25h19.81l1.88-25.53-2.72,0C2849.36,289.65,2844.58,289.83,2839.79,290.16Z"/><path class="b" d="M2860.34,241.8a30.31,30.31,0,0,1,14.85-23.91c4.63-2.72,8.19-5.3,14-11.14-2.22-.08-4.44-.13-6.64-.13-31,0-60.85,7-90.22,17.95-.68,7.19-1.5,14.36-2.47,21.35l-1.46,10.54c22.53-6.41,47.5-11.27,71.66-11.44Z"/><path class="b" d="M2836.57,290.42a305.55,305.55,0,0,0-54.23,10l-2.05,14.75h51.83A119.89,119.89,0,0,1,2836.57,290.42Z"/><path class="b" d="M2905.22,89.57c-6.21-.7-12.43-1.15-18.64-1.39l-8.89,27.76a184.55,184.55,0,0,1,19.59,2.6C2900.19,107.94,2903,97.65,2905.22,89.57Z"/><path class="a" d="M1746.1,290.21l2.74,25h58.37C1788.34,304.19,1767.69,295.33,1746.1,290.21Z"/><path class="a" d="M1796.91,116.43c-.26-2-.51-4-.77-5.94-1.26-9.67-2.56-19.67-2.74-26.5,0-1.67-.12-4.25-.23-7.39-4.73-.92-9.76-1.7-14.93-2.33-1.54-.19-3.08-.37-4.64-.53-.06,7.21-.15,13.31-.27,16.5a1.57,1.57,0,0,1-2,1.46,1.89,1.89,0,0,1-1.37-1.53c-1-6.08-1.92-11.74-2.79-17-6.66-.56-13.39-.9-19.89-1l2.06,15.75a1.68,1.68,0,0,1-.35,1.26,1.7,1.7,0,0,1-1.15.64,1.9,1.9,0,0,1-2-1.41l-4.12-16.27a177.88,177.88,0,0,0-21.44,1.18l4.25,22.47a1.54,1.54,0,0,1-.78,1.65,1.88,1.88,0,0,1-2.68-1c-1.41-3.9-4.47-12.42-7.93-22a140.29,140.29,0,0,0-18.76,4.89c3,9.54,6.1,19.49,8.89,28.39,9.18-.46,18.43-1.22,27.73-1.22C1751,106.44,1773.84,109.67,1796.91,116.43Z"/><path class="a" d="M1681.09,103.34c-3.69-3.74-10-7.46-16.24-9.37l-3.17-1a5.26,5.26,0,0,0-5.93,7.94c3.28,4.85,7.71,12.27,12,19.76a45.79,45.79,0,0,1,5.84-9.33A87,87,0,0,1,1681.09,103.34Z"/><path class="a" d="M1751,124.51a49,49,0,0,0-8.88-14.73c-3.8-.22-7.53-.34-11.16-.34-8.88,0-17.82.71-26.81,1.18,1.88,6,3.57,11.38,4.92,15.71a420.84,420.84,0,0,1,45.73,13.41A76.72,76.72,0,0,0,1751,124.51Z"/><path class="a" d="M1775.5,248.75q5.05,1.86,10.07,3.94a280.61,280.61,0,0,1,32.69,16.12L1809,215.89c-15.19-7.75-31.82-13.86-48.56-19.3C1769.07,214,1772.9,229.25,1775.5,248.75Z"/><path class="a" d="M1756.38,195.3c-8.62-2.75-17.25-5.35-25.69-7.92l-1.32.18a30.37,30.37,0,0,1,7.29,16.62l3.82,34.81a198,198,0,0,1,31.84,8.61C1769.6,228,1765.59,213.07,1756.38,195.3Z"/><path class="a" d="M1707.2,131l-5.22-3.65a53,53,0,0,1-13.3-13.43c-2.65-3.89-4.6-6.72-5.66-8.24a79.55,79.55,0,0,0-7,7.61,40.46,40.46,0,0,0-6.31,10.71c2,3.49,3.91,6.91,5.65,10a90.42,90.42,0,0,0,13.48,18.31c19.18,20.12,24.09,24.16,32.16,28.53.53.29,1,.59,1.57.91l5.71,1.76A129.73,129.73,0,0,0,1707.2,131Z"/><path class="a" d="M1728.62,186.75l.12.13s0-.07,0-.1Z"/><path class="a" d="M1808.33,212.2l-1.13-6.43c-2.28-13-4.1-26.63-5.34-39.91-27.5-17.74-59.54-28.42-91.72-36.2.06.19.11.37.17.55a132.63,132.63,0,0,1,21.1,54.25C1756.89,192.23,1784.18,200.2,1808.33,212.2Z"/><path class="a" d="M1733.66,40.39a171.16,171.16,0,0,0-19,3.29l5,26.66a177.83,177.83,0,0,1,21.23-1.22Z"/><path class="a" d="M1703.14,46.66c-5.57,1.61-11.3,3.49-17.23,5.63,2.1,6.71,4.75,15.16,7.55,24.12a142,142,0,0,1,18.63-4.88C1709,63,1705.76,53.92,1703.14,46.66Z"/><path class="a" d="M1726,10A8.76,8.76,0,0,0,1716,3.22l-.24,0a8.75,8.75,0,0,0-6.81,10.34c.11.57.67,3.39,5.17,27.13a174.29,174.29,0,0,1,18.82-3.27C1726.87,13.51,1726.16,10.55,1726,10Z"/><path class="a" d="M1698,32.4a8.51,8.51,0,0,0-4.54-5,8.75,8.75,0,0,0-12.13,10.3c0,.06,1.45,4.61,3.68,11.74,5.88-2.12,11.57-4,17.11-5.59C1699.67,37,1698,32.41,1698,32.4Z"/><path class="a" d="M1793.07,73.53c-.29-8.35-.7-19.47-1.07-29-6.29-1.48-12.35-2.64-18.26-3.47,0,8.67,0,19.88-.12,29.64,1.67.17,3.34.36,5,.56C1783.6,71.91,1788.46,72.66,1793.07,73.53Z"/><path class="a" d="M1791.21,25.69a8.78,8.78,0,0,0-8.75-8.46,8.53,8.53,0,0,0-6.17,2.62,9.35,9.35,0,0,0-2.55,6.79s0,4.65,0,11.42c5.89.82,11.91,1.95,18.14,3.39C1791.58,33.79,1791.32,27.64,1791.21,25.69Z"/><path class="a" d="M1753.83,123.44a85.33,85.33,0,0,1,4.21,17.49,240.12,240.12,0,0,1,43.48,21.17c-.14-1.67-.28-3.33-.41-5-.7-9.35-1.66-18.17-2.5-25.95q-.28-2.56-.54-5c-.22-2.09-.48-4.29-.76-6.52a246,246,0,0,0-51.08-9.63A51.24,51.24,0,0,1,1753.83,123.44Z"/><path class="a" d="M1761.74,39.8c-3.66-.25-7.27-.39-10.87-.39-2.61,0-5.21.08-7.81.21l3.85,29.52c6.46.09,13.14.41,19.78,1C1764.71,58,1763.07,48,1761.74,39.8Z"/><path class="a" d="M1761.24,36.76l-4.62-28.3a8.8,8.8,0,0,0-9.84-7.25,8.74,8.74,0,0,0-7.41,10.16l0,.11,3.28,25.16q4.1-.22,8.2-.23C1754.31,36.41,1757.76,36.53,1761.24,36.76Z"/><path class="a" d="M1826.4,315.2l-7.46-42.51a273.62,273.62,0,0,0-34.52-17.23c-14.83-6.16-30.05-10.94-43.6-13.37l4.93,45c24,5.54,46.78,15.64,67.32,28.15Z"/><polygon class="a" points="1741.74 109.3 1741.74 109.3 1741.74 109.3 1741.74 109.3"/><polygon class="a" points="1756.1 194.75 1756.1 194.75 1756.1 194.75 1756.1 194.75"/><path class="b" d="M165.28,132.15a5.27,5.27,0,0,0-6-.86l-3,1.51c-6.89,3.52-13.54,9.6-15.8,14.46-.77,1.64-2.23,4.84-4.23,9.27a53,53,0,0,1-10.78,15.52l-6.19,6.18a1.33,1.33,0,0,1-1.16-.34,1.36,1.36,0,0,1-.41-1.14c3-22.77,12.58-96.31,12.61-96.55a8.75,8.75,0,0,0-13.73-8A8.57,8.57,0,0,0,113,77.88s-9.53,54.87-11.64,67a1.86,1.86,0,0,1-.89,1.3,1.89,1.89,0,0,1-1.57.18,1.57,1.57,0,0,1-1.06-1.49C98.87,68.21,99,62.13,99,61.26a8.76,8.76,0,0,0-8.5-9h-.24a8.78,8.78,0,0,0-8.75,8.42c0,.84-.42,7-5.93,80.61A1.89,1.89,0,0,1,73.84,143,1.71,1.71,0,0,1,72,141.41L68.65,64.32a8.76,8.76,0,0,0-9.06-8.73,8.79,8.79,0,0,0-8.43,8.84c0,.93.25,21.5,1,82.8A1.88,1.88,0,0,1,51,149a1.55,1.55,0,0,1-1.36,0,1.56,1.56,0,0,1-.84-1.08c-2.49-11.54-11.39-62.47-11.4-62.56a9.35,9.35,0,0,0-3.68-6.26,8.52,8.52,0,0,0-6.53-1.51,8.77,8.77,0,0,0-7.15,9.84c.67,5.74,6.43,47.88,7.91,57.8,1,6.76,1.45,16.84,1.88,26.58.24,5.34.48,10.87.81,15.81.11,1.61.22,3.28.34,5,.51,7.81,1.09,16.67,2,26,1.58,15.93,2.41,32.87,2.41,49V315.2H108.6l-4-61.43A30.32,30.32,0,0,1,116.07,228c7.19-5.7,11.33-10.53,26.75-33.66A90.57,90.57,0,0,0,152.93,174c4.06-11.63,9.7-27.3,13.55-35.93A5.26,5.26,0,0,0,165.28,132.15Zm-61.86,81.51a1.5,1.5,0,0,1-2.12,0c-1.62-1.7-3.28-3.29-5-4.8a45.49,45.49,0,0,0-3.37,5,1.5,1.5,0,0,1-2.61-1.48,49.83,49.83,0,0,1,3.71-5.53,80.2,80.2,0,0,0-8.58-6.3c-.81,1.82-1.62,3.62-2.42,5.43a1.5,1.5,0,1,1-2.74-1.21c.86-1.95,1.73-3.88,2.58-5.8q-3.15-1.82-6.43-3.32a75.49,75.49,0,0,0-7.24-2.84c-.62,2.4-1.25,4.81-2,7.21a1.5,1.5,0,1,1-2.87-.87c.72-2.38,1.36-4.81,2-7.24a85.14,85.14,0,0,0-13-2.69c-.22,1.8-.45,3.61-.73,5.41a1.5,1.5,0,0,1-3-.46c.27-1.76.5-3.53.72-5.3-1.25-.12-2.51-.23-3.79-.3a1.5,1.5,0,0,1,.18-3c1.33.08,2.65.19,4,.32.23-2,.44-4.1.66-6.15h0a1.5,1.5,0,1,1,3,.31c-.22,2.06-.43,4.12-.66,6.19A88.33,88.33,0,0,1,67.11,189c.65-2.58,1.3-5.16,2-7.74h0a1.49,1.49,0,0,1,1.85-1,1.51,1.51,0,0,1,1,1.85c-.73,2.58-1.38,5.2-2,7.83a78.19,78.19,0,0,1,7.75,3c2.17,1,4.29,2.09,6.37,3.28.9-2.12,1.76-4.25,2.51-6.41h0a1.5,1.5,0,1,1,2.83,1c-.83,2.39-1.77,4.71-2.74,7a82,82,0,0,1,9.2,6.71c.9-1.14,1.79-2.26,2.64-3.4h0a1.5,1.5,0,1,1,2.39,1.8c-.91,1.21-1.84,2.38-2.75,3.55q2.7,2.41,5.29,5.11h0A1.5,1.5,0,0,1,103.42,213.66Z"/><path class="a" d="M545.55,38.09a8.48,8.48,0,0,0-6.7.12,9.35,9.35,0,0,0-4.91,5.35c0,.09-19.36,48-24.21,58.81a1.57,1.57,0,0,1-2.38.6,1.9,1.9,0,0,1-.7-1.92c13.49-59.8,18-79.87,18.23-80.78a8.79,8.79,0,0,0-6.4-10.4,8.76,8.76,0,0,0-10.69,6.65l0,.1L488.39,91.2a1.69,1.69,0,0,1-2.1,1.21,1.89,1.89,0,0,1-1.36-2.08c10-73.09,10.88-79.25,11-80.08A8.79,8.79,0,0,0,489.16.19l-.24,0a8.75,8.75,0,0,0-10.19,7c-.15.86-1.3,6.83-16.33,82a1.53,1.53,0,0,1-1.34,1.23,1.87,1.87,0,0,1-1.5-.49,1.92,1.92,0,0,1-.6-1.46c.47-12.32,2.6-67.94,2.6-68a8.47,8.47,0,0,0-2.33-6.35,8.74,8.74,0,0,0-15.1,5c0,.23-6,74.16-7.83,97a1.33,1.33,0,0,1-.64,1,1.28,1.28,0,0,1-1.2.09L429.69,110a53.24,53.24,0,0,1-7.3-17.43c-1-4.75-1.79-8.19-2.2-9.95-1.19-5.22-6.43-12.56-12.44-17.44l-2.57-2.09a5.26,5.26,0,0,0-8.47,5.14c2,9.25,4.22,25.75,5.76,38a90.31,90.31,0,0,0,5.64,22c10.24,25.84,13.28,31.42,19.13,38.49a30.33,30.33,0,0,1,5.81,27.55L399,315.2h79l19.86-93c3.37-15.75,7.72-32.13,12.59-47.38,2.85-8.93,5.26-17.47,7.39-25L519.2,145c1.36-4.77,2.75-10.12,4.1-15.29,2.45-9.44,5-19.2,7.39-25.6,3.51-9.4,17.95-49.4,19.8-54.88A8.77,8.77,0,0,0,545.55,38.09ZM498.44,154.17c-2.71,1.66-5.26,3.28-7.72,4.88q2.46,3.76,4.93,7.5a1.5,1.5,0,0,1-2.5,1.66q-2.47-3.74-4.93-7.5a139.29,139.29,0,0,0-12.48,9.41c2,2.61,4.05,5.18,6.22,7.69a1.49,1.49,0,0,1-.15,2.12,1.51,1.51,0,0,1-2.12-.15c-2.18-2.52-4.22-5.08-6.21-7.68a103.4,103.4,0,0,0-10.16,10.57c2.37,2.48,4.83,4.85,7.48,7.18a1.5,1.5,0,0,1-2,2.25c-2.62-2.3-5.06-4.64-7.4-7.08-1.65,2.08-3.28,4.28-4.91,6.64A1.5,1.5,0,0,1,454,190c1.76-2.55,3.52-4.91,5.3-7.14-1.39-1.51-2.76-3-4.13-4.65h0a1.5,1.5,0,1,1,2.29-1.95c1.24,1.46,2.49,2.87,3.75,4.25a106.76,106.76,0,0,1,10.42-10.77q-2.43-3.24-4.83-6.56h0a1.5,1.5,0,0,1,2.43-1.76c1.55,2.15,3.1,4.25,4.66,6.34a141,141,0,0,1,12.65-9.51c-1.12-1.71-2.23-3.43-3.36-5.13h0a1.5,1.5,0,1,1,2.5-1.65c1.13,1.7,2.24,3.41,3.36,5.12q3.72-2.45,7.79-4.94h0a1.5,1.5,0,1,1,1.57,2.56Z"/><path class="b" d="M1536.22,72.25a8.47,8.47,0,0,0-6.69.31,9.28,9.28,0,0,0-4.76,5.48c0,.09-18,48.56-22.56,59.46a1.58,1.58,0,0,1-1,.9,1.56,1.56,0,0,1-1.34-.23,1.89,1.89,0,0,1-.76-1.9c11.82-60.15,15.79-80.34,16-81.25a8.81,8.81,0,0,0-6.69-10.23,8.76,8.76,0,0,0-10.49,7l-17.32,75.19a1.68,1.68,0,0,1-.77,1.07,1.67,1.67,0,0,1-1.29.2,1.89,1.89,0,0,1-1.42-2c7.92-73.34,8.67-79.52,8.79-80.36a8.78,8.78,0,0,0-7.07-9.86l-.25,0a8.75,8.75,0,0,0-10,7.32c-.13.86-1.12,6.86-14,82.43a1.55,1.55,0,0,1-1.31,1.28,1.9,1.9,0,0,1-2.15-1.9c.13-12.33.71-68,.71-68a8.49,8.49,0,0,0-2.51-6.28,8.75,8.75,0,0,0-15,5.42c0,.24-3.91,74.3-5.12,97.23a1.34,1.34,0,0,1-1.81,1.17l-5-7.2a52.83,52.83,0,0,1-7.78-17.22c-1.17-4.71-2-8.13-2.47-9.88-1.35-5.19-6.78-12.38-12.93-17.09l-2.63-2a5.26,5.26,0,0,0-8.32,5.38c2.23,9.18,4.93,25.62,6.81,37.79a90.36,90.36,0,0,0,6.26,21.86c11,25.55,14.15,31,20.19,37.95a30.31,30.31,0,0,1,6.57,27.38L1407,315.2h76l10.64-57.61c2.92-15.84,6.81-32.34,11.25-47.72,2.6-9,4.78-17.6,6.7-25.19.42-1.67.83-3.28,1.23-4.85,1.23-4.8,2.47-10.19,3.67-15.4,2.19-9.5,4.46-19.33,6.67-25.8,3.25-9.49,16.57-49.88,18.27-55.4A8.78,8.78,0,0,0,1536.22,72.25Zm-37.35,101.22a1.5,1.5,0,0,1-2.09-.36c-1.79-2.52-3.76-5-5.76-7.38-2.8,2.8-5.45,5.63-8,8.51,1,1.06,2,2.14,3,3.25a1.5,1.5,0,1,1-2.27,2c-.86-1-1.76-2-2.66-2.93-3,3.52-5.88,7.13-8.66,10.89,1.63,1.37,3.26,2.74,4.91,4.06a1.5,1.5,0,1,1-1.87,2.34c-1.63-1.3-3.22-2.63-4.81-4-1.65,2.29-3.26,4.64-4.87,7.07a1.5,1.5,0,1,1-2.5-1.65q2.51-3.78,5.06-7.36c-1.75-1.47-3.5-2.93-5.28-4.35h0a1.5,1.5,0,1,1,1.88-2.34c1.75,1.4,3.46,2.83,5.17,4.26,2.85-3.85,5.79-7.54,8.88-11.14-1-1-2.06-2.07-3.11-3.1h0a1.49,1.49,0,0,1,0-2.12,1.51,1.51,0,0,1,2.12,0c1,1,2,2,3,3,2.59-2.93,5.31-5.81,8.16-8.67-.85-1-1.71-2.07-2.55-3.12h0a1.5,1.5,0,0,1,2.34-1.88c.77,1,1.56,1.92,2.35,2.88.8-.78,1.61-1.55,2.43-2.33h0a1.5,1.5,0,1,1,2.06,2.18l-2.57,2.48c2.08,2.51,4.15,5.07,6.07,7.76A1.51,1.51,0,0,1,1498.87,173.47Z"/><path class="a" d="M1188.2,198.33a5.26,5.26,0,0,0-6-.92l-3,1.48c-6.93,3.45-13.63,9.47-15.94,14.31-.78,1.63-2.27,4.82-4.32,9.23a52.89,52.89,0,0,1-10.92,15.42l-6.24,6.12a1.36,1.36,0,0,1-1.16-.35,1.32,1.32,0,0,1-.4-1.14c3.19-22.74,13.48-96.19,13.5-96.43a8.74,8.74,0,0,0-13.65-8.17,8.57,8.57,0,0,0-3.66,5.69s-10,54.77-12.26,66.9a1.9,1.9,0,0,1-2.48,1.45,1.55,1.55,0,0,1-1-1.5c1.72-76.66,1.9-82.74,1.93-83.6a8.75,8.75,0,0,0-8.4-9.09H1114a8.78,8.78,0,0,0-8.82,8.34c0,.84-.49,7.05-6.69,80.56a1.9,1.9,0,0,1-1.78,1.73,1.69,1.69,0,0,1-1.79-1.64l-2.66-77v-.1a8.76,8.76,0,0,0-9-8.82,8.79,8.79,0,0,0-8.51,8.76c0,.93,0,21.5.18,82.8a1.89,1.89,0,0,1-1.1,1.73,1.55,1.55,0,0,1-1.36,0,1.57,1.57,0,0,1-.83-1.08c-2.38-11.57-10.8-62.58-10.81-62.68a9.34,9.34,0,0,0-3.63-6.28,8.52,8.52,0,0,0-6.51-1.58,8.78,8.78,0,0,0-7.25,9.78c.62,5.75,6,47.93,7.37,57.87.94,6.77,1.3,16.85,1.64,26.6.18,5.34.38,10.87.66,15.81.1,1.62.19,3.28.29,5,.44,7.81.94,16.67,1.77,26,.93,10.32,1.52,21.06,1.79,31.71h69.56a30.34,30.34,0,0,1,11.61-21.46c7.24-5.62,11.43-10.41,27.06-33.4a90.57,90.57,0,0,0,10.3-20.27c4.17-11.59,10-27.21,13.89-35.8A5.25,5.25,0,0,0,1188.2,198.33Zm-59.58,31.53q-7.15,4.13-14.41,7.78c2,5.47,4,11,5.84,16.52a1.5,1.5,0,1,1-2.85.94c-1.79-5.4-3.73-10.75-5.69-16.11a195.61,195.61,0,0,1-26.75,10.81c1.37,4.86,2.71,9.72,4.09,14.56a1.5,1.5,0,1,1-2.88.82c-1.38-4.82-2.72-9.66-4.08-14.49a155.88,155.88,0,0,1-22.15,4.89h0a1.5,1.5,0,0,1-.43-3,152.84,152.84,0,0,0,21.77-4.81c-1.41-5-2.84-9.93-4.35-14.84h0a1.5,1.5,0,0,1,2.87-.88c1.51,4.92,2.94,9.88,4.34,14.83a192.71,192.71,0,0,0,26.54-10.75c-1.81-4.95-3.61-9.91-5.29-14.94h0a1.5,1.5,0,0,1,2.84-.95c1.63,4.87,3.38,9.7,5.15,14.54q7-3.56,13.94-7.55a1.5,1.5,0,1,1,1.5,2.6Z"/><path class="b" d="M853,73.42a8.74,8.74,0,0,0-12.49-9.85,8.51,8.51,0,0,0-4.36,5.17s-2.24,7-5.27,16.48c6.16.25,12.33.71,18.5,1.42C851.59,78.67,853,73.48,853,73.42Z"/><path class="b" d="M790.31,89.21c-6.39.51-12.78,1.16-19.18,1.91-1,7.81-2.13,16.82-3.44,27.19,6.7-1,13.4-1.79,20.1-2.3Z"/><path class="b" d="M824.58,50.35a8.76,8.76,0,0,0-7.17-10.09l-.25,0a8.78,8.78,0,0,0-9.81,7.14c-.06.33-.3,1.52-1.57,7.51,5.89.52,11.79,1.27,17.73,2.34C824.35,51.76,824.53,50.68,824.58,50.35Z"/><path class="b" d="M819.27,85l3.79-24.8c-6-1.07-11.95-1.83-17.91-2.34-1.2,5.63-3.06,14.32-6,27.75,6.63-.38,13.27-.61,19.91-.61Z"/><path class="b" d="M793.34,57.08c-5.88-.25-11.81-.35-17.84-.37-.83,6.52-2.11,16.63-4,31.35q9.53-1.11,19.08-1.89Z"/><path class="b" d="M762.32,252.29c-10.6,2-21,4.55-31,7.41l-5.2,37.51c9.15-2.46,18.71-4.67,28.45-6.43C755.19,277.13,758.26,265.15,762.32,252.29Z"/><path class="b" d="M757.64,290.25a239.88,239.88,0,0,1,39.83-3.6l2.94,0L803.25,248a229.24,229.24,0,0,0-37.58,3.65C761.46,264.83,758.3,276.73,757.64,290.25Z"/><path class="b" d="M794.08,49.21a8.77,8.77,0,0,0-7.77-9.89,8.8,8.8,0,0,0-9.57,7.6c0,.28-.3,2.35-.86,6.79,6,0,11.87.12,17.74.38Z"/><path class="b" d="M761.27,92.35c-6.21.82-12.42,1.71-18.62,2.63,0,11.35,0,22.73,0,27.93,6.59-1.41,13.16-2.69,19.72-3.77C762,111.57,761.63,101.62,761.27,92.35Z"/><path class="b" d="M760.28,65.71a9.34,9.34,0,0,0-2.79-6.7,8.55,8.55,0,0,0-6.26-2.4,8.78,8.78,0,0,0-8.44,8.77c-.06,2.81-.11,14.33-.13,26.57q9.23-1.38,18.49-2.6C760.66,76.53,760.28,65.75,760.28,65.71Z"/><path class="b" d="M770,152.19c-2.86,10-4.87,21.4-6.49,31.83,20.82-10,43.32-16.42,65.11-21.64,1.25-4.54,2.79-10.17,4.49-16.37-3.19-.18-6.4-.28-9.62-.28C805.75,145.73,787.67,148.37,770,152.19Z"/><path class="b" d="M851.9,162.22a53.63,53.63,0,0,1,7.17,13.31c1.21-2,2.36-4,3.43-6.09,5.61-11,13.35-25.71,18.36-33.72a5.26,5.26,0,0,0-6.2-7.72l-3.14,1.08c-7.31,2.54-14.73,7.65-17.64,12.16-1,1.51-2.87,4.49-5.47,8.6a50,50,0,0,1-3.35,4.68A63.17,63.17,0,0,1,851.9,162.22Z"/><path class="b" d="M814.61,115.54c1.67-10.92,3-20,4.2-27.56-6.75,0-13.51.24-20.27.64-1.62,7.55-3.55,16.48-5.83,27.06q6.28-.36,12.58-.37C808.4,115.31,811.5,115.4,814.61,115.54Z"/><path class="b" d="M809.31,204.3c5.51-.43,11.06-.68,16.65-.68,3.15,0,6.31.08,9.48.22,3.69-3.84,8.24-8.84,14.24-15.61a88.82,88.82,0,0,0,7.33-9.49A50.72,50.72,0,0,0,849.49,164a60.06,60.06,0,0,0-6.37-7.2,52.87,52.87,0,0,1-7.51,6.92l-7,5.27a1.32,1.32,0,0,1-1-.38,82.24,82.24,0,0,0-11.15,16.16A95.27,95.27,0,0,0,809.31,204.3Z"/><path class="b" d="M813.84,183.41a85.68,85.68,0,0,1,12-17.26c-30.82,7.54-62.54,17.71-88.5,37-.31,6-.74,12-1.27,18.1,22.89-8.42,46.16-14.48,70.07-16.7A100.26,100.26,0,0,1,813.84,183.41Z"/><path class="b" d="M833.94,143.05c1.87-6.85,3.9-14.26,5.92-21.61a179.39,179.39,0,0,0-19.73-2.56l-4.69,14.64a1.9,1.9,0,0,1-2.64,1.12A1.54,1.54,0,0,1,812,133c.78-5.15,1.51-10,2.2-14.5-3-.13-5.91-.21-8.87-.21q-6.62,0-13.24.41c-.53,2.48-1.08,5-1.66,7.68a1.88,1.88,0,0,1-2,1.49,1.72,1.72,0,0,1-1.17-.6,1.68,1.68,0,0,1-.39-1.25l.66-7c-6.74.53-13.47,1.35-20.22,2.37q-.46,3.72-1,7.66a1.89,1.89,0,0,1-1.31,1.57,1.58,1.58,0,0,1-2-1.38c-.12-1.66-.26-4.11-.42-7.1-6.6,1.1-13.22,2.39-19.87,3.83-.12,6.68-1,15.63-1.78,24.33-.19,2-.38,4.11-.57,6.17,26.51-7.29,55.12-13.74,83.17-13.75C827,142.73,830.47,142.83,833.94,143.05Z"/><path class="b" d="M766.69,152.93c-9,2-18,4.33-26.64,6.74-.19,2.19-.37,4.35-.51,6.41-.11,1.61-.23,3.28-.36,5-.56,7.81-1.2,16.66-1.57,26,0,.74-.07,1.49-.1,2.23a168.94,168.94,0,0,1,22.73-13.68A297.59,297.59,0,0,1,766.69,152.93Z"/><path class="b" d="M783.16,290.16a115.74,115.74,0,0,0-4.66,25h19.81l1.88-25.53-2.72,0C792.73,289.65,788,289.83,783.16,290.16Z"/><path class="b" d="M803.71,241.8a30.32,30.32,0,0,1,14.86-23.91c4.63-2.72,8.18-5.3,14-11.14-2.21-.08-4.43-.13-6.64-.13-31,0-60.84,7-90.21,17.95-.68,7.19-1.51,14.36-2.48,21.35l-1.46,10.54c22.54-6.41,47.5-11.27,71.66-11.44Z"/><path class="b" d="M779.94,290.42a305.72,305.72,0,0,0-54.23,10l-2,14.75h51.82A121.23,121.23,0,0,1,779.94,290.42Z"/><path class="b" d="M848.6,89.57c-6.22-.7-12.43-1.15-18.65-1.39-2.79,8.72-6.08,19-8.88,27.76a184.37,184.37,0,0,1,19.58,2.6Z"/></svg>