<svg xmlns="http://www.w3.org/2000/svg" xmlns:xlink="http://www.w3.org/1999/xlink" viewBox="0 0 192.04 255.44"><defs><style>.a{fill:none;}.b{clip-path:url(#a);}.c{fill:#292b2e;}.d{fill:#fff;}.e{fill:#fffdfd;}</style><clipPath id="a"><rect class="a" width="192.04" height="255.44"/></clipPath></defs><g class="b"><path class="c" d="M55.79,101a11.34,11.34,0,0,0,3.54.82c1.89.12,5-2,5.56-3.82.86-3.06-4.24-2.77-6-2.55s-6.12.8-5.36,3.34A3.77,3.77,0,0,0,55.79,101"/><path class="c" d="M151,165.34v-.07h0c0-.08,0-.17,0-.23v0l-1.11-6.84-.23-1.44v0h0c-.4-2.83-.81-5.62-1.37-8.36v0l0-.15Q143,116.54,137.82,85q-3-18.51-6-37-1.5-9.45-3-18.88c-.48-3.1-1-6.21-1.46-9.31A30.63,30.63,0,0,0,125.9,13a14.4,14.4,0,0,0-4.3-5.92,10.15,10.15,0,0,0-6.38-2.39,9.55,9.55,0,0,0-2.6.37,11.13,11.13,0,0,0-6.39,5.15,17.11,17.11,0,0,0-1.9,5,74.15,74.15,0,0,1-2.22,7.87,40.31,40.31,0,0,1-4.83,9.78,23.57,23.57,0,0,1-8.18,7.48c-4.92,2.62-10.35,3-15.46,3.13-1.1,0-2.21,0-3.32,0-2.89,0-5.77-.09-8.65-.21a59.7,59.7,0,0,1-12.48-1.56,26.1,26.1,0,0,1-9.14-4.45,20,20,0,0,1-6.38-8.06,55.32,55.32,0,0,1-2.76-9.45,53.68,53.68,0,0,0-2.59-9,13.27,13.27,0,0,0-4.65-6.13A10.86,10.86,0,0,0,17.89,3a8.58,8.58,0,0,0-2.66.4A14.9,14.9,0,0,0,6.84,10,20.26,20.26,0,0,0,4.41,20.18c0,.45,0,.89,0,1.33.29,6.24,1,12.52,1.4,18.85S6.65,53,7,59.29Q8.56,88.89,8.6,118.52q0,7.37-.1,14.74Q8.29,147,7.73,160.75h0q-.27,6.21-.59,12.44-.93,17.26-2.38,34.49Q4,217,3,226.21l.07,0,.06,0a292.15,292.15,0,0,0,61.3,13.27,287.35,287.35,0,0,0,30.2,1.6,290.46,290.46,0,0,0,32.3-1.82,298.3,298.3,0,0,0,34.87-6v-.18c-.45-2.94-.93-5.88-1.39-8.82-2.58-.31-5.19-.49-7.93-.6a.8.8,0,0,1-.76-.81.28.28,0,0,1,0-.09,11.24,11.24,0,0,1,2.47-5.44,2.77,2.77,0,0,1,2-.86c1,.05,2,.14,3,.25q-4.06-25.66-8.24-51.31Zm-5.5,12a45.13,45.13,0,0,1,1.78,11.07v.05c0,1.46-2.16,2.24-3.49,1.22a17,17,0,0,0-3.53-2.1,2.14,2.14,0,0,1-1.36-1.67,41.44,41.44,0,0,0-1.25-6.9,1.66,1.66,0,0,1,1.31-1.93l.13,0c1.29-.3,2.55-.62,3.69-.94a2.19,2.19,0,0,1,2.72,1.22m-7.11-15.32a63.78,63.78,0,0,1,4.8,8.92,1.6,1.6,0,0,1-1,2,1.53,1.53,0,0,1-.29.07c-1,.3-2.33.63-3.72,1a2.22,2.22,0,0,1-2.59-1.08,51.21,51.21,0,0,0-4.13-7.82,1.5,1.5,0,0,1,.5-2.06,1.87,1.87,0,0,1,.32-.15c1.12-.5,2.2-1,3.15-1.49a2.39,2.39,0,0,1,3,.63m-15.23-12.82c.24-.25.47-.51.69-.77a2.43,2.43,0,0,1,3.38-.11c.46.46.92.92,1.37,1.4a85.9,85.9,0,0,1,5.7,6.59,1.47,1.47,0,0,1-.29,2.06,1.28,1.28,0,0,1-.38.21c-1,.48-2.1,1-3.3,1.56a2.41,2.41,0,0,1-2.8-.58c-1.83-2.36-3.82-4.66-5.91-6.89a1.39,1.39,0,0,1,0-2l.12-.11a18.76,18.76,0,0,0,1.43-1.39m5.4,36.29a1.08,1.08,0,0,1,0,1.53,1.13,1.13,0,0,1-.59.31,13.13,13.13,0,0,0-2.49,1,2.27,2.27,0,0,1-2.57-.29A97.84,97.84,0,0,0,103,173.62s-4.16,1.74-6.22-1.53c-1.14-3.25,3.44-4,3.44-4-.21-2.66,3.45-5.11,6.3-3.51s1.22,5.1,1.22,5.1c1.81,1.4,10.82,5.82,20.83,15.86M15.56,84.07c.73-21.77,24.63-31.54,40.94-31.7,16.15-2.3,41.17,3.76,45.16,25.18s-11.58,28.27-23.93,27.33c0,0-.63,5.63-3.85,7.46-.58.33-1.94-.75-2.32-1.14-2.43-2.49-2.29-3.51-3.77-3.19a52.9,52.9,0,0,1-14.17,1.07c-1.51-.1-1.22.9-3.25,3.72-.31.44-1.5,1.72-2.12,1.48-3.45-1.32-4.93-6.8-4.93-6.8-12.07,2.79-28.48-1.63-27.76-23.41m85.23,42.47-.55.42c-.73.52-1.5,1-2.3,1.46a2.5,2.5,0,0,1-2.87-.33c-1.22-1.24-2.27-2.59-3.44-3.88a22.59,22.59,0,0,1-3.79-5.54c-.55-1,.37-2,1.26-2.36a8.78,8.78,0,0,1,2.53-.85,2.31,2.31,0,0,1,2.68,1.29,60.14,60.14,0,0,0,6.67,7.76,1.34,1.34,0,0,1,0,1.88.65.65,0,0,1-.18.15M70.07,115.26A19.31,19.31,0,0,1,61.36,118a18.73,18.73,0,0,1-8.91-1.38,17,17,0,0,0,1.79-2.33,1.73,1.73,0,0,1,1.58-.79c.85.06,1.66.09,2.45.07h.16c.59,0,1.8,0,2.53-.08.94-.07,2.41-.27,2.9-.34.79-.1,1.59-.25,2.42-.44a1.74,1.74,0,0,1,1.68.54,16.93,16.93,0,0,0,2.12,2m-37.92,8.45c1.49-3.12,3.15-4.49,8.27-.95,3.38,2.34,6.64,3.68,10.94,5.85,2,1-3.86,3.22-10.77,2.41-8.32-1-9.9-4.24-8.44-7.31m7.88,44c-.13-2.47-1.54-19.26-1-23.91,0,0-5.6-2.1-2.77-5.17,2.65-2.88,6.3.85,6.3.85,2.65-2.53,7-1.23,6.54,1.39A4.22,4.22,0,0,1,45.82,144c-.6,1.9,1,24,1,24s5.37,1.26,3.18,4.53c-2,3-6.3.56-6.3.56-2.15,2-6.42,1.87-7.1-.85s3.4-4.57,3.4-4.57m13.28,60c-.19,1.79-2.78,3.15-7.42,2.69-3.66-.36-6.72-2.15-6.06-3.81s2.62-2.64,7-2.35c4.57.3,6.67,1.68,6.48,3.47m2.38-9.57c-.43,2.74-5.17,3.26-7.5,1.34,0,0-4.28,2.4-6.5,0-2.17-3.94,3-5.23,3-5.23S41.35,185.87,40.72,184c0,0-3-.43-3.63-3s4.11-4,6.34-1.53c0,0,3.56-3.89,6.35-1.1,3,3-2.45,5.1-2.45,5.1.68,4.63,4.05,28.11,4.19,30.58,0,0,4.59,1.36,4.16,4.11M59.91,128a87.49,87.49,0,0,0,14-5.12c7.26-3.44,7.9-1.79,10.29,1.53,2.18,3-.48,5.76-12,6.73C60,132.2,57.2,128.85,59.91,128m2.53,43.68c-.5-2.84,3.84-4.46,3.84-4.46.09-2.56-.4-19.07,0-23.89,0,0-5.74-2-2.87-5.18,2.7-3,6.65.87,6.65.87,2.15-2.62,7.11-1.4,6.66,1.31s-3.55,3.3-3.55,3.3c-.53,2-.35,23.55-.35,23.55s5.77,1.59,3.28,4.87c-2.28,3-6.24.78-6.24.78-2.37,2-6.91,1.7-7.42-1.15m2.39,47.06c-.75-2.76,3.5-4.51,3.5-4.51-.18-2.52-1.53-25.64-1.14-30.39,0,0-5.76-2.05-3-5.22,2.64-3,6.44.77,6.44.77,2.64-2.62,7.1-1.36,6.69,1.31A4.23,4.23,0,0,1,74.14,184c-.56,1.94,1.17,29.89,1.17,29.89s5.5,1.2,3.36,4.56c-2,3.08-6.06,1.13-6.06,1.13-2.14,2.12-7,1.95-7.78-.81m9.37,11.78c-4.64.48-7.25-.87-7.46-2.65s1.87-3.18,6.44-3.5c4.38-.32,6.32.6,7,2.31s-2.35,3.46-6,3.84m8.21-72.49h0l0,.1Zm1.65-2A44.87,44.87,0,0,1,89.68,155c2.25-.38,4.48-.82,6.66-1.4a36.29,36.29,0,0,0,11.43-4.83,16,16,0,0,0,4.46-3.89c1.06-1.48-.45-2.74-2.31-1.54a55.93,55.93,0,0,1-5.14,3,35.33,35.33,0,0,1-5.49,2.33,43,43,0,0,1-8.5,2.07,25.69,25.69,0,0,1-6.84.08c-1.24-.17-4.89-.88-4-2.45.68-1.23,4.07-1.58,5.44-1.89,2.17-.48,4.34-1,6.44-1.61,4.18-1.28,8-2.34,11.76-4.81,1-.65,3.42-2.49,2.83-3.54-.76-1.35-2.76,0-3.83.54a36.31,36.31,0,0,1-12,3.76,20,20,0,0,1-6.42.08c-2.07-.38-3.41-1.57-1.48-2.51a23.51,23.51,0,0,1,3.19-1c2.19-.67,4.36-1.41,6.46-2.24a40.18,40.18,0,0,0,10.26-5.67l.17-.13c1.23-1,2.3-2.2,3.93-.81.89.77,1.74,1.57,2.6,2.36l7.24,6.55,3.47,3.14a11,11,0,0,1,2.48,2.44c.77,1.58-1.47,3.41-2.57,4.58a29.68,29.68,0,0,1-5.53,4.47,45.76,45.76,0,0,1-25.69,7.26c-1.52-.05-4.77-.24-6-1.16s.46-1.82,1.43-2.13m7.84,27.71s-6.27-.57-4.8-4.26c2.22-3.56,6.43-.82,6.43-.82,1.52-3.13,6.26-3,6.87-.35a3.52,3.52,0,0,1-1.82,3.88c4.65,12.58,18.7,28,18.7,28s5.58-.93,5.6,2.84c0,3.45-4.75,3.2-4.75,3.2-.68,2.66-5.12,4.29-7.38,2.11s.53-5.29.53-5.29c-1.61-2.17-12.89-14.37-19.38-29.34M125,226.89a7.9,7.9,0,0,1-5.36,0c-12.07,2.55-18.06.4-18.58-.67-.85-1.77,4-2.19,5.68-2.31a97.73,97.73,0,0,0,11.18-1.35c-.28-1.64,3.59-4.39,6.72-2.65,2.34,1.3,4.69,5.35.36,7m2.83-18.06c-3.9-4.34-4.39-11.43-3.54-13.86,1.2-3.43,3.76-5,8.85-5.32h.49c3,0,9.07,1.65,11.33,7.22,1.41,3.48,1,9.27-2.24,12.56-1.89,2-4.55,2.86-7.92,2.7a9.72,9.72,0,0,1-7-3.29m22,9.94a14.77,14.77,0,0,0-1,3,1.93,1.93,0,0,1-2.13,1.55c-4.38-.55-8.94-2-11.39-5.53a9.06,9.06,0,0,1-.61-1,1.22,1.22,0,0,1,.51-1.64,1.28,1.28,0,0,1,.5-.13,13.74,13.74,0,0,0,3.48-.61,4.63,4.63,0,0,1,3,.06l.31.13.24.11a20,20,0,0,0,5.45,1.32,2,2,0,0,1,1.72,2.17,2.38,2.38,0,0,1-.16.58"><animate
                attributeType="XML"
                attributeName="fill"
                values="#fff;#292B2E;#fff;#fff;#fff;#fff"
                dur="0.8s"
                repeatCount="indefinite"/></path><path class="c" d="M75.45,93.1c2.79,1.29,7.45.82,10.45.15,8.2-1.81,9.4-6.06,10-8.83A7.75,7.75,0,0,0,96,81.54C94.68,73,86.65,68,80.61,69.86c-5.69,1.76-9.75,6.26-9.45,16.64a7.51,7.51,0,0,0,4.3,6.6"/><path class="c" d="M47.05,88.32c-1.27-10.3-6-14.14-11.86-15-6.25-.93-13.44,5.18-13.46,13.87A7.89,7.89,0,0,0,22.25,90c1,2.64,2.86,6.66,11.24,7.22,3.06.2,7.75,0,10.3-1.73A7.52,7.52,0,0,0,47,88.32"/><path class="d" d="M160.43,224.29c.46,2.93.93,5.87,1.39,8.81v.18a298.66,298.66,0,0,1-34.87,6,288.2,288.2,0,0,1-32.3,1.82,287.34,287.34,0,0,1-30.2-1.59,292.8,292.8,0,0,1-61.3-13.28l-.07,0-.06,0Q4,217,4.75,207.68q1.47-17.22,2.38-34.49.33-6.23.6-12.44h0q.55-13.74.76-27.49.11-7.36.1-14.73Q8.59,88.89,7,59.3q-.51-9.48-1.15-18.94C5.41,34,4.73,27.75,4.44,21.51c0-.44,0-.88,0-1.33A20.27,20.27,0,0,1,6.84,10,14.9,14.9,0,0,1,15.23,3.4,8.58,8.58,0,0,1,17.89,3a10.78,10.78,0,0,1,5.78,1.68,13.19,13.19,0,0,1,4.65,6.12,53.41,53.41,0,0,1,2.59,9,56.48,56.48,0,0,0,2.75,9.45,20.13,20.13,0,0,0,6.39,8,25.75,25.75,0,0,0,9.14,4.45,59.7,59.7,0,0,0,12.48,1.56c2.88.13,5.76.21,8.65.21,1.11,0,2.21,0,3.32,0,5.1-.12,10.54-.5,15.46-3.12a23.72,23.72,0,0,0,8.19-7.49,40.43,40.43,0,0,0,4.83-9.77,74.94,74.94,0,0,0,2.21-7.88,17.22,17.22,0,0,1,1.9-5A11.13,11.13,0,0,1,112.62,5a9.56,9.56,0,0,1,2.61-.36,10.15,10.15,0,0,1,6.37,2.39A14.49,14.49,0,0,1,125.9,13a30.63,30.63,0,0,1,1.49,6.75c.49,3.1,1,6.21,1.46,9.31q1.49,9.43,3,18.87,3,18.54,6,37.05,5.15,31.59,10.36,63.16l0,.16,0,0c.55,2.74,1,5.53,1.36,8.35v0h0l.24,1.45,1.11,6.84v0c0,.05,0,.14,0,.22h0v.08l0,.07q4.17,25.65,8.23,51.32c1,.1,2,.23,3.1.38Q158.21,191.06,154,165v-.13l0-.11-.05-.28-1.11-6.82c-.08-.48-.15-1-.23-1.44-.41-2.86-.83-5.74-1.42-8.63v-.08q-5.18-31.53-10.34-63-3-18.53-6-37-1.5-9.44-3-18.87c-.48-3.1-1-6.2-1.45-9.3a34,34,0,0,0-1.67-7.39,17.59,17.59,0,0,0-5.21-7.16,13.18,13.18,0,0,0-8.26-3,12.78,12.78,0,0,0-3.42.48,14.15,14.15,0,0,0-8.15,6.5,20.31,20.31,0,0,0-2.24,5.87,70.67,70.67,0,0,1-2.13,7.56,37.63,37.63,0,0,1-4.45,9,20.63,20.63,0,0,1-7.15,6.56c-4.17,2.24-9.1,2.66-14.11,2.77-1.08,0-2.17,0-3.25,0-2.83,0-5.67-.08-8.52-.21a57,57,0,0,1-11.85-1.46,22.8,22.8,0,0,1-8.07-3.93,17,17,0,0,1-5.45-6.84,52.64,52.64,0,0,1-2.59-8.95,55.69,55.69,0,0,0-2.76-9.46,16.2,16.2,0,0,0-5.76-7.46A13.77,13.77,0,0,0,17.89,0,11.5,11.5,0,0,0,14.3.55a17.85,17.85,0,0,0-10.06,8A23.17,23.17,0,0,0,1.41,20.18q0,.74,0,1.47c.3,6.36,1,12.66,1.4,18.91S3.66,53.15,4,59.45Q5.57,89,5.59,118.52q0,7.35-.1,14.69-.21,13.71-.77,27.41-.27,6.21-.59,12.41-.91,17.22-2.37,34.39Q1,216.75,0,226.08c0,.1,0,.21,0,.32a2.7,2.7,0,0,0,.65,1.8,2.76,2.76,0,0,0,1.26.8L2,229l.07,0,.07,0a295.3,295.3,0,0,0,62,13.43,290.54,290.54,0,0,0,30.51,1.61,294,294,0,0,0,32.64-1.83,303.58,303.58,0,0,0,35.32-6.13,2.82,2.82,0,0,0,1.73-1.23,3.22,3.22,0,0,0,.5-1.76,3.39,3.39,0,0,0,0-.55l-1.48.23,1.48-.23c-.41-2.64-.84-5.28-1.26-7.93h-.08c-1-.17-2-.31-3-.43"/><path class="a" d="M80.61,69.86h0c-5.7,1.76-9.76,6.26-9.46,16.64a7.53,7.53,0,0,0,4.3,6.6c2.79,1.29,7.45.82,10.45.16,8.2-1.82,9.4-6.07,10-8.83A7.81,7.81,0,0,0,96,81.54C94.68,73,86.65,68,80.61,69.86Z"/><path class="a" d="M58.87,95.43c-1.67.21-6.12.8-5.36,3.34A3.77,3.77,0,0,0,55.79,101a11.06,11.06,0,0,0,3.54.81c1.89.13,5-1.94,5.56-3.81C65.75,94.91,60.66,95.21,58.87,95.43Z"/><path class="a" d="M35.19,73.3c-6.25-.93-13.43,5.17-13.46,13.87A7.89,7.89,0,0,0,22.25,90c1,2.64,2.86,6.66,11.24,7.22h0c3.06.2,7.74,0,10.3-1.73a7.53,7.53,0,0,0,3.25-7.18C45.78,78,41.09,74.18,35.19,73.3Z"/><path class="e" d="M68,113.23a1.73,1.73,0,0,0-1.69-.54c-.83.19-1.63.33-2.41.44-.49.07-2,.27-2.9.34-.73,0-1.94.07-2.53.08h-.16c-.79,0-1.6,0-2.45-.07a1.74,1.74,0,0,0-1.59.79,17,17,0,0,1-1.79,2.33A18.79,18.79,0,0,0,61.36,118a19.35,19.35,0,0,0,8.71-2.72,18.49,18.49,0,0,1-2.12-2"/><path class="e" d="M91.64,115.46a9.07,9.07,0,0,0-2.54.86c-.89.39-1.81,1.31-1.25,2.36a22.74,22.74,0,0,0,3.78,5.54c1.18,1.29,2.22,2.63,3.44,3.87a2.5,2.5,0,0,0,2.87.33c.8-.46,1.57-.94,2.3-1.46.12-.08.33-.24.55-.42a1.33,1.33,0,0,0,.34-1.85,1.19,1.19,0,0,0-.15-.18,60.86,60.86,0,0,1-6.66-7.76,2.31,2.31,0,0,0-2.68-1.29"/><path class="e" d="M121.61,152.7c2.09,2.24,4.08,4.54,5.92,6.9a2.4,2.4,0,0,0,2.8.57c1.2-.53,2.34-1.08,3.3-1.56a1.49,1.49,0,0,0,.88-1.89,1.41,1.41,0,0,0-.21-.38q-2.66-3.39-5.71-6.59l-1.36-1.4a2.43,2.43,0,0,0-3.38.11l-.69.77c-.46.49-.94,1-1.44,1.39a1.4,1.4,0,0,0-.21,2l.11.12"/><path class="e" d="M131.45,165.13a51.21,51.21,0,0,1,4.13,7.82,2.25,2.25,0,0,0,2.59,1.08c1.39-.33,2.67-.66,3.72-1a1.59,1.59,0,0,0,1.35-1.81,1.4,1.4,0,0,0-.06-.28,63.78,63.78,0,0,0-4.8-8.92,2.39,2.39,0,0,0-3-.63c-.95.48-2,1-3.15,1.49a1.5,1.5,0,0,0-1,1.89,1.3,1.3,0,0,0,.14.32"/><path class="e" d="M114.32,152.05a29.68,29.68,0,0,0,5.53-4.47c1.1-1.17,3.34-3,2.57-4.58a10.68,10.68,0,0,0-2.49-2.44l-3.46-3.15-7.24-6.55c-.86-.78-1.71-1.59-2.6-2.35-1.63-1.39-2.7-.22-3.93.81l-.17.13a39.85,39.85,0,0,1-10.26,5.66c-2.1.84-4.27,1.58-6.46,2.25a23.47,23.47,0,0,0-3.19,1c-1.93.95-.6,2.14,1.48,2.51a20,20,0,0,0,6.41-.07A36.29,36.29,0,0,0,102.57,137c1.07-.5,3.07-1.9,3.83-.54.59,1.05-1.82,2.89-2.83,3.54-3.82,2.47-7.59,3.53-11.76,4.8-2.1.64-4.27,1.14-6.44,1.62-1.37.31-4.76.66-5.44,1.88-.87,1.57,2.78,2.28,4,2.46a25.28,25.28,0,0,0,6.84-.09,43,43,0,0,0,8.5-2.06,36.37,36.37,0,0,0,5.49-2.34,57.19,57.19,0,0,0,5.14-3c1.85-1.2,3.37.06,2.31,1.54a16,16,0,0,1-4.46,3.88,36.06,36.06,0,0,1-11.43,4.83c-2.18.58-4.41,1-6.66,1.41A43.13,43.13,0,0,0,84.06,156c-1,.31-2.57,1.27-1.42,2.13s4.47,1.1,6,1.16a45.8,45.8,0,0,0,25.69-7.26"/><path class="e" d="M82.42,158.06l0,.09,0-.1Z"/><path class="e" d="M69.86,172.85s4,2.22,6.24-.77c2.49-3.28-3.28-4.87-3.28-4.87s-.18-21.59.35-23.56c0,0,3.11-.57,3.55-3.29s-4.51-3.93-6.66-1.31c0,0-4-3.87-6.65-.87-2.87,3.2,2.87,5.18,2.87,5.18-.4,4.82.09,21.33,0,23.89,0,0-4.34,1.62-3.84,4.46s5,3.17,7.42,1.14"/><path class="e" d="M72.61,219.58s4.1,1.94,6.06-1.13c2.14-3.36-3.35-4.56-3.35-4.56S73.58,185.94,74.14,184a4.21,4.21,0,0,0,3.21-3.26c.42-2.68-4-3.94-6.69-1.32,0,0-3.8-3.74-6.43-.76-2.8,3.16,3,5.21,3,5.21-.39,4.75,1,27.88,1.15,30.39,0,0-4.25,1.75-3.5,4.51s5.64,2.93,7.78.81"/><path class="e" d="M110.76,218.36c2.26,2.18,6.7.56,7.38-2.11,0,0,4.77.25,4.75-3.2,0-3.76-5.6-2.84-5.6-2.84s-14.05-15.45-18.7-28a3.52,3.52,0,0,0,1.82-3.88c-.62-2.65-5.35-2.78-6.87.35,0,0-4.2-2.73-6.43.82-1.47,3.69,4.8,4.26,4.8,4.26,6.5,15,17.77,27.18,19.38,29.35,0,0-2.78,3.1-.53,5.28"/><path class="e" d="M124.66,219.89c-3.13-1.74-7,1-6.72,2.65a97.46,97.46,0,0,1-11.18,1.35c-1.66.12-6.53.54-5.68,2.31.52,1.07,6.51,3.22,18.58.67a8,8,0,0,0,5.36,0c4.33-1.65,2-5.71-.36-7"/><path class="e" d="M51.52,214c-.14-2.47-3.51-26-4.19-30.58,0,0,5.41-2.13,2.45-5.1-2.79-2.79-6.35,1.1-6.35,1.1-2.23-2.44-6.94-1.08-6.34,1.52s3.63,3,3.63,3c.63,1.88,3.94,30.21,3.94,30.21s-5.15,1.3-3,5.23c2.21,2.44,6.5,0,6.5,0,2.33,1.91,7.07,1.4,7.5-1.35S51.52,214,51.52,214"/><path class="e" d="M43.72,173.08S48,175.5,50,172.52c2.18-3.27-3.18-4.53-3.18-4.53s-1.63-22.12-1-24a4.21,4.21,0,0,0,3.23-3.16c.48-2.63-3.88-3.93-6.54-1.39,0,0-3.64-3.73-6.3-.85-2.82,3.06,2.78,5.16,2.78,5.16-.5,4.66.92,21.45,1,23.92,0,0-4.08,1.84-3.4,4.56s4.95,2.9,7.1.86"/><path class="e" d="M46.83,224.23c-4.38-.29-6.31.64-7,2.35s2.4,3.45,6.05,3.81c4.65.46,7.24-.9,7.43-2.69s-1.92-3.16-6.49-3.47"/><path class="e" d="M73.18,224.39c-4.57.33-6.65,1.72-6.44,3.5s2.82,3.14,7.46,2.65c3.66-.38,6.7-2.18,6-3.84s-2.65-2.62-7-2.31"/><path class="e" d="M139.08,177.1a1.64,1.64,0,0,0-1.46,1.82.69.69,0,0,0,0,.13,41.26,41.26,0,0,1,1.25,6.9,2.14,2.14,0,0,0,1.36,1.67,16.54,16.54,0,0,1,3.53,2.1c1.33,1,3.54.24,3.49-1.23v0a45.13,45.13,0,0,0-1.78-11.08,2.18,2.18,0,0,0-2.72-1.21c-1.14.31-2.4.63-3.69.94"/><path class="e" d="M72.13,131.17c11.56-1,14.23-3.69,12-6.73-2.39-3.33-3-5-10.29-1.53a87.84,87.84,0,0,1-14,5.12c-2.71.82.09,4.17,12.22,3.14"/><path class="e" d="M51.36,128.61c-4.3-2.18-7.55-3.51-10.93-5.85-5.12-3.54-6.78-2.17-8.27.95s.11,6.34,8.43,7.31c6.91.81,12.79-1.39,10.77-2.41"/><path class="e" d="M106.49,164.57c-2.84-1.6-6.51.85-6.3,3.51,0,0-4.58.75-3.44,4,2.06,3.27,6.22,1.54,6.22,1.54a97.46,97.46,0,0,1,19.94,14.47,2.27,2.27,0,0,0,2.57.28,13.82,13.82,0,0,1,2.49-1,1.08,1.08,0,0,0,.88-1.24,1,1,0,0,0-.3-.59c-10-10-19-14.46-20.84-15.86,0,0,1.62-3.51-1.22-5.1"/><path class="e" d="M148.27,216a20.39,20.39,0,0,1-5.45-1.32l-.24-.11-.31-.13a4.57,4.57,0,0,0-3-.07,13.24,13.24,0,0,1-3.48.61,1.22,1.22,0,0,0-1.15,1.27,1.29,1.29,0,0,0,.14.51,10.13,10.13,0,0,0,.61,1c2.45,3.55,7,5,11.39,5.52a1.94,1.94,0,0,0,2.13-1.54,14.86,14.86,0,0,1,1-3,2,2,0,0,0-1-2.59,1.85,1.85,0,0,0-.57-.15"/><path class="e" d="M165.85,217.71c-1.19-.23-2.36-.42-3.52-.6s-2.09-.28-3.1-.39-2-.2-3-.25a2.81,2.81,0,0,0-2,.86,11.35,11.35,0,0,0-2.46,5.44.77.77,0,0,0,.66.89h.09c2.74.12,5.35.3,7.93.61,1,.12,2,.26,3,.43h.08a1.42,1.42,0,0,0,1.57-1.05,14.75,14.75,0,0,1,1.6-4.1,1.25,1.25,0,0,0-.46-1.71,1.07,1.07,0,0,0-.39-.14"/><path class="e" d="M178.66,228a10.18,10.18,0,0,1,1.48-1.73,10.07,10.07,0,0,1,1.13-.92,1.39,1.39,0,0,0-.15-2.35,46,46,0,0,0-8.86-3.67,2,2,0,0,0-2,.49,9.44,9.44,0,0,0-2,3.77,2,2,0,0,0,1.32,2.52h.06l1.67.5a27.51,27.51,0,0,1,4.7,2,2,2,0,0,0,2.65-.64"/><path class="e" d="M181.21,232.61a12.6,12.6,0,0,1,2.25,3.39,2.15,2.15,0,0,0,2.2,1.23,9.05,9.05,0,0,1,3.24.25l1.3.34a1.49,1.49,0,0,0,1.8-1.06,1.47,1.47,0,0,0,0-.66,16.5,16.5,0,0,0-4.84-8.7,2.07,2.07,0,0,0-1.7-.6,5.85,5.85,0,0,0-3.27,1.64,7.93,7.93,0,0,0-1.3,1.59,2.16,2.16,0,0,0,.31,2.59"/><path class="e" d="M179.85,249a7.37,7.37,0,0,0-2.73,1,16.19,16.19,0,0,0-3.13,1.38,2.2,2.2,0,0,0,.95,3.86,13.24,13.24,0,0,0,7.22-1,1.49,1.49,0,0,0,1-1.62,4.87,4.87,0,0,0-.93-2.22,3.58,3.58,0,0,0-2.33-1.38"/><path class="e" d="M188.15,240.38a6.47,6.47,0,0,0-2.63-.1,1.64,1.64,0,0,0-1.3,1.41l0,.27a8.66,8.66,0,0,1-1.25,3.3,1.62,1.62,0,0,0,.41,2.15,7.38,7.38,0,0,1,1.08,1,7,7,0,0,1,1.39,2.29,1,1,0,0,0,1.27.57.83.83,0,0,0,.32-.2,14.82,14.82,0,0,0,4.17-6.76,1.5,1.5,0,0,0-.07-1.1,5,5,0,0,0-3.35-2.83"/></g></svg>